<svg xmlns="http://www.w3.org/2000/svg" viewBox="0 0 960 560" role="img" aria-labelledby="title desc">
  <title id="title">Turtle tiling preview</title>
  <desc id="desc">A two-dimensional tiling made from turtle-like polygonal pieces.</desc>
  <rect width="960" height="560" fill="#f3f5f1"/>
  <defs>
    <g id="turtle" stroke="#26342f" stroke-width="3" stroke-linejoin="round">
      <path d="M0 24 28 0h74l30 24 26-8 18 20-24 24 18 28-22 18-30-20-24 16H38L14 86-16 106-38 88-20 60-44 36-26 16z" fill="var(--fill, #d8a84a)"/>
      <path d="M36 22h58l22 34-24 34H40L16 56z" fill="rgba(255,255,255,0.22)"/>
      <circle cx="145" cy="32" r="4" fill="#26342f"/>
    </g>
  </defs>
  <g transform="translate(92 72)">
    <g transform="translate(0 0)" style="--fill:#d9a441"><use href="#turtle"/></g>
    <g transform="translate(184 28) rotate(180 66 54)" style="--fill:#77a889"><use href="#turtle"/></g>
    <g transform="translate(332 0)" style="--fill:#c86d58"><use href="#turtle"/></g>
    <g transform="translate(516 28) rotate(180 66 54)" style="--fill:#6d8fc7"><use href="#turtle"/></g>
    <g transform="translate(664 0)" style="--fill:#d9a441"><use href="#turtle"/></g>

    <g transform="translate(92 120) rotate(180 66 54)" style="--fill:#6d8fc7"><use href="#turtle"/></g>
    <g transform="translate(240 92)" style="--fill:#d9a441"><use href="#turtle"/></g>
    <g transform="translate(424 120) rotate(180 66 54)" style="--fill:#77a889"><use href="#turtle"/></g>
    <g transform="translate(572 92)" style="--fill:#c86d58"><use href="#turtle"/></g>

    <g transform="translate(0 212)" style="--fill:#77a889"><use href="#turtle"/></g>
    <g transform="translate(184 240) rotate(180 66 54)" style="--fill:#c86d58"><use href="#turtle"/></g>
    <g transform="translate(332 212)" style="--fill:#6d8fc7"><use href="#turtle"/></g>
    <g transform="translate(516 240) rotate(180 66 54)" style="--fill:#d9a441"><use href="#turtle"/></g>
    <g transform="translate(664 212)" style="--fill:#77a889"><use href="#turtle"/></g>
  </g>
  <g transform="translate(678 384)" fill="none" stroke="#315f9f" stroke-width="5" stroke-linecap="round">
    <path d="M0 0h86c28 0 28 44 56 44h70"/>
    <path d="M86 0c28 0 28-42 56-42h76"/>
    <circle cx="0" cy="0" r="8" fill="#fbfcfb"/>
    <circle cx="86" cy="0" r="8" fill="#fbfcfb"/>
    <circle cx="212" cy="44" r="8" fill="#fbfcfb"/>
    <circle cx="218" cy="-42" r="8" fill="#fbfcfb"/>
  </g>
  <text x="70" y="494" fill="#1f2926" font-family="Inter, Segoe UI, sans-serif" font-size="34" font-weight="800">2D turtle tiling</text>
  <text x="70" y="526" fill="#62716b" font-family="Inter, Segoe UI, sans-serif" font-size="18">planar pieces, branching choices, geometric constraints</text>
</svg>
